<mxfile host="Electron" agent="Mozilla/5.0 (X11; Linux x86_64) AppleWebKit/537.36 (KHTML, like Gecko) draw.io/24.7.5 Chrome/126.0.6478.185 Electron/31.3.1 Safari/537.36" version="24.7.5">
  <diagram name="Page-1" id="rIEjTlfnBz-9zcmWtMJR">
    <mxGraphModel dx="989" dy="577" grid="1" gridSize="10" guides="1" tooltips="1" connect="1" arrows="1" fold="1" page="1" pageScale="1" pageWidth="827" pageHeight="1169" math="0" shadow="0">
      <root>
        <mxCell id="0" />
        <mxCell id="1" parent="0" />
        <mxCell id="MOszLsN-f4gpqnsGS33E-19" style="edgeStyle=orthogonalEdgeStyle;rounded=0;orthogonalLoop=1;jettySize=auto;html=1;exitX=1;exitY=0.5;exitDx=0;exitDy=0;" edge="1" parent="1" source="A__plgbokK1b6xo6oSvK-1">
          <mxGeometry relative="1" as="geometry">
            <mxPoint x="370" y="190" as="targetPoint" />
          </mxGeometry>
        </mxCell>
        <mxCell id="A__plgbokK1b6xo6oSvK-1" value="&lt;font style=&quot;font-size: 14px;&quot;&gt;Element&lt;/font&gt;" style="rounded=0;whiteSpace=wrap;html=1;glass=0;fillColor=#dae8fc;strokeColor=#6c8ebf;" parent="1" vertex="1">
          <mxGeometry x="220" y="160" width="120" height="60" as="geometry" />
        </mxCell>
        <mxCell id="MOszLsN-f4gpqnsGS33E-6" value="" style="shape=flexArrow;endArrow=classic;html=1;rounded=0;" edge="1" parent="1">
          <mxGeometry width="50" height="50" relative="1" as="geometry">
            <mxPoint x="279.66" y="230" as="sourcePoint" />
            <mxPoint x="279.66" y="280" as="targetPoint" />
          </mxGeometry>
        </mxCell>
        <mxCell id="MOszLsN-f4gpqnsGS33E-12" style="edgeStyle=orthogonalEdgeStyle;rounded=0;orthogonalLoop=1;jettySize=auto;html=1;exitX=1;exitY=0.5;exitDx=0;exitDy=0;entryX=0;entryY=0.25;entryDx=0;entryDy=0;" edge="1" parent="1" source="MOszLsN-f4gpqnsGS33E-7" target="MOszLsN-f4gpqnsGS33E-10">
          <mxGeometry relative="1" as="geometry" />
        </mxCell>
        <mxCell id="MOszLsN-f4gpqnsGS33E-7" value="&lt;font style=&quot;font-size: 14px;&quot;&gt;Element &lt;br&gt;Replica 1&lt;/font&gt;" style="rounded=0;whiteSpace=wrap;html=1;glass=0;fillColor=#dae8fc;strokeColor=#6c8ebf;" vertex="1" parent="1">
          <mxGeometry x="220" y="290" width="120" height="60" as="geometry" />
        </mxCell>
        <mxCell id="MOszLsN-f4gpqnsGS33E-13" style="edgeStyle=orthogonalEdgeStyle;rounded=0;orthogonalLoop=1;jettySize=auto;html=1;exitX=1;exitY=0.5;exitDx=0;exitDy=0;entryX=0;entryY=0.5;entryDx=0;entryDy=0;" edge="1" parent="1" source="MOszLsN-f4gpqnsGS33E-8" target="MOszLsN-f4gpqnsGS33E-10">
          <mxGeometry relative="1" as="geometry" />
        </mxCell>
        <mxCell id="MOszLsN-f4gpqnsGS33E-8" value="&lt;font style=&quot;font-size: 14px;&quot;&gt;Element&lt;/font&gt;&lt;div&gt;&lt;font style=&quot;font-size: 14px;&quot;&gt;Replica 2&lt;/font&gt;&lt;/div&gt;" style="rounded=0;whiteSpace=wrap;html=1;glass=0;fillColor=#d5e8d4;strokeColor=#82b366;" vertex="1" parent="1">
          <mxGeometry x="220" y="360" width="120" height="60" as="geometry" />
        </mxCell>
        <mxCell id="MOszLsN-f4gpqnsGS33E-14" style="edgeStyle=orthogonalEdgeStyle;rounded=0;orthogonalLoop=1;jettySize=auto;html=1;exitX=1;exitY=0.5;exitDx=0;exitDy=0;entryX=0;entryY=0.75;entryDx=0;entryDy=0;" edge="1" parent="1" source="MOszLsN-f4gpqnsGS33E-9" target="MOszLsN-f4gpqnsGS33E-10">
          <mxGeometry relative="1" as="geometry" />
        </mxCell>
        <mxCell id="MOszLsN-f4gpqnsGS33E-9" value="&lt;font style=&quot;font-size: 14px;&quot;&gt;Element&lt;/font&gt;&lt;div&gt;&lt;font style=&quot;font-size: 14px;&quot;&gt;Replica 3&lt;/font&gt;&lt;/div&gt;" style="rounded=0;whiteSpace=wrap;html=1;glass=0;fillColor=#ffe6cc;strokeColor=#d79b00;" vertex="1" parent="1">
          <mxGeometry x="220" y="430" width="120" height="60" as="geometry" />
        </mxCell>
        <mxCell id="MOszLsN-f4gpqnsGS33E-32" style="edgeStyle=orthogonalEdgeStyle;rounded=0;orthogonalLoop=1;jettySize=auto;html=1;exitX=1;exitY=0.5;exitDx=0;exitDy=0;" edge="1" parent="1" source="MOszLsN-f4gpqnsGS33E-10">
          <mxGeometry relative="1" as="geometry">
            <mxPoint x="530" y="390.04761904761904" as="targetPoint" />
          </mxGeometry>
        </mxCell>
        <mxCell id="MOszLsN-f4gpqnsGS33E-10" value="&lt;font style=&quot;font-size: 14px;&quot;&gt;Majority Voter&lt;/font&gt;" style="rounded=0;whiteSpace=wrap;html=1;glass=0;fillColor=#e1d5e7;strokeColor=#9673a6;" vertex="1" parent="1">
          <mxGeometry x="380" y="360" width="120" height="60" as="geometry" />
        </mxCell>
        <mxCell id="MOszLsN-f4gpqnsGS33E-23" style="edgeStyle=orthogonalEdgeStyle;rounded=0;orthogonalLoop=1;jettySize=auto;html=1;exitX=1;exitY=0.5;exitDx=0;exitDy=0;entryX=0;entryY=0.5;entryDx=0;entryDy=0;" edge="1" parent="1" target="A__plgbokK1b6xo6oSvK-1">
          <mxGeometry relative="1" as="geometry">
            <mxPoint x="190" y="190" as="sourcePoint" />
          </mxGeometry>
        </mxCell>
        <mxCell id="MOszLsN-f4gpqnsGS33E-24" style="edgeStyle=orthogonalEdgeStyle;rounded=0;orthogonalLoop=1;jettySize=auto;html=1;exitX=1;exitY=0.5;exitDx=0;exitDy=0;entryX=0;entryY=0.5;entryDx=0;entryDy=0;" edge="1" parent="1">
          <mxGeometry relative="1" as="geometry">
            <mxPoint x="190" y="319.86" as="sourcePoint" />
            <mxPoint x="220" y="319.86" as="targetPoint" />
          </mxGeometry>
        </mxCell>
        <mxCell id="MOszLsN-f4gpqnsGS33E-26" style="edgeStyle=orthogonalEdgeStyle;rounded=0;orthogonalLoop=1;jettySize=auto;html=1;exitX=1;exitY=0.5;exitDx=0;exitDy=0;entryX=0;entryY=0.5;entryDx=0;entryDy=0;" edge="1" parent="1">
          <mxGeometry relative="1" as="geometry">
            <mxPoint x="190" y="389.90000000000003" as="sourcePoint" />
            <mxPoint x="220" y="389.90000000000003" as="targetPoint" />
          </mxGeometry>
        </mxCell>
        <mxCell id="MOszLsN-f4gpqnsGS33E-27" style="edgeStyle=orthogonalEdgeStyle;rounded=0;orthogonalLoop=1;jettySize=auto;html=1;exitX=1;exitY=0.5;exitDx=0;exitDy=0;entryX=0;entryY=0.5;entryDx=0;entryDy=0;" edge="1" parent="1">
          <mxGeometry relative="1" as="geometry">
            <mxPoint x="190" y="459.89" as="sourcePoint" />
            <mxPoint x="220" y="459.89" as="targetPoint" />
          </mxGeometry>
        </mxCell>
        <mxCell id="MOszLsN-f4gpqnsGS33E-28" value="&lt;font style=&quot;font-size: 14px;&quot;&gt;Non-Redundant Design&lt;/font&gt;" style="text;html=1;align=center;verticalAlign=middle;whiteSpace=wrap;rounded=0;" vertex="1" parent="1">
          <mxGeometry x="90" y="175" width="100" height="30" as="geometry" />
        </mxCell>
        <mxCell id="MOszLsN-f4gpqnsGS33E-29" value="&lt;font style=&quot;font-size: 14px;&quot;&gt;Redundant Design&lt;/font&gt;" style="text;html=1;align=center;verticalAlign=middle;whiteSpace=wrap;rounded=0;" vertex="1" parent="1">
          <mxGeometry x="90" y="375" width="100" height="30" as="geometry" />
        </mxCell>
        <mxCell id="MOszLsN-f4gpqnsGS33E-31" value="&lt;font style=&quot;font-size: 14px;&quot;&gt;TMR Insertion&lt;/font&gt;" style="text;html=1;align=center;verticalAlign=middle;whiteSpace=wrap;rounded=0;" vertex="1" parent="1">
          <mxGeometry x="300" y="240" width="100" height="30" as="geometry" />
        </mxCell>
      </root>
    </mxGraphModel>
  </diagram>
</mxfile>
